HIERARCHY
ROOT newVegas:Hips
{
	OFFSET 0.000000 96.479958 0.000000
	CHANNELS 6 Xposition Yposition Zposition Xrotation Yrotation Zrotation
	JOINT newVegas:Pelvis
	{
		OFFSET 0.000000 0.000000 0.000000
		CHANNELS 3 Xrotation Yrotation Zrotation
		JOINT newVegas:LeftUpLeg
		{
			OFFSET 18.735201 -5.666702 -4.541200
			CHANNELS 3 Xrotation Yrotation Zrotation
			JOINT newVegas:LeftLeg
			{
				OFFSET -0.021200 -31.938179 0.493100
				CHANNELS 3 Xrotation Yrotation Zrotation
				JOINT newVegas:LeftFoot
				{
					OFFSET 0.021200 -31.938179 -4.336299
					CHANNELS 3 Xrotation Yrotation Zrotation
					JOINT newVegas:LeftToeBase
					{
						OFFSET 0.943001 -26.722000 15.023500
						CHANNELS 3 Xrotation Yrotation Zrotation
						End Site
						{
							OFFSET 0.000000 30.670183 0.000000
						}
					}
				}
				JOINT newVegas:Left_PantLeg
				{
					OFFSET 0.663870 -9.044666 -1.108900
					CHANNELS 3 Xrotation Yrotation Zrotation
					End Site
					{
						OFFSET 1.415995 20.635357 0.000000
					}
				}
			}
		}
		JOINT newVegas:RightUpLeg
		{
			OFFSET -18.735201 -5.666702 -4.541200
			CHANNELS 3 Xrotation Yrotation Zrotation
			JOINT newVegas:RightLeg
			{
				OFFSET 0.018946 -31.938133 0.493100
				CHANNELS 3 Xrotation Yrotation Zrotation
				JOINT newVegas:RightFoot
				{
					OFFSET -0.018946 -31.938126 -4.336299
					CHANNELS 3 Xrotation Yrotation Zrotation
					JOINT newVegas:RightToeBase
					{
						OFFSET -0.943001 -26.722004 15.023500
						CHANNELS 3 Xrotation Yrotation Zrotation
						End Site
						{
							OFFSET 0.000000 30.670187 0.000000
						}
					}
				}
				JOINT newVegas:Right_PantLeg
				{
					OFFSET -0.661674 -9.044716 -1.108900
					CHANNELS 3 Xrotation Yrotation Zrotation
					End Site
					{
						OFFSET -1.415958 20.635269 0.000000
					}
				}
			}
		}
	}
	JOINT newVegas:Spine
	{
		OFFSET 0.000000 10.199997 -0.299500
		CHANNELS 3 Xrotation Yrotation Zrotation
		JOINT newVegas:Spine1
		{
			OFFSET 0.000000 11.900002 -1.516600
			CHANNELS 3 Xrotation Yrotation Zrotation
			JOINT newVegas:Spine2
			{
				OFFSET 0.000000 13.600006 -2.842500
				CHANNELS 3 Xrotation Yrotation Zrotation
				JOINT newVegas:Neck
				{
					OFFSET 0.000000 9.624100 -2.890100
					CHANNELS 3 Xrotation Yrotation Zrotation
					JOINT newVegas:Head
					{
						OFFSET 0.000000 14.068802 -1.351900
						CHANNELS 3 Xrotation Yrotation Zrotation
						JOINT newVegas:Hair_Back
						{
							OFFSET 0.000000 3.231903 -17.524799
							CHANNELS 3 Xrotation Yrotation Zrotation
							End Site
							{
								OFFSET 0.000000 19.849884 0.000000
							}
						}
						JOINT newVegas:Hair_Front
						{
							OFFSET 0.000000 31.260406 4.573800
							CHANNELS 3 Xrotation Yrotation Zrotation
							JOINT newVegas:Hair_Front1
							{
								OFFSET 0.000000 2.284103 11.993300
								CHANNELS 3 Xrotation Yrotation Zrotation
								JOINT newVegas:Hair_Front2
								{
									OFFSET 0.000000 2.284103 11.993300
									CHANNELS 3 Xrotation Yrotation Zrotation
									End Site
									{
										OFFSET 0.000000 12.208862 0.000000
									}
								}
							}
						}
						JOINT newVegas:Jowel
						{
							OFFSET 0.000000 -7.458206 6.864100
							CHANNELS 3 Xrotation Yrotation Zrotation
							End Site
							{
								OFFSET 0.000000 19.849884 0.000000
							}
						}
					}
				}
				JOINT newVegas:LeftShoulder
				{
					OFFSET 15.263000 10.923401 -0.547700
					CHANNELS 3 Xrotation Yrotation Zrotation
					JOINT newVegas:LeftArm
					{
						OFFSET 25.438599 -2.830597 -13.032500
						CHANNELS 3 Xrotation Yrotation Zrotation
						JOINT newVegas:LeftForeArm
						{
							OFFSET 29.960503 0.000000 0.000000
							CHANNELS 3 Xrotation Yrotation Zrotation
							JOINT newVegas:LeftHand
							{
								OFFSET 27.849251 0.000000 0.000000
								CHANNELS 3 Xrotation Yrotation Zrotation
								JOINT newVegas:LeftHandThumb1
								{
									OFFSET 4.487587 -3.305161 6.305391
									CHANNELS 3 Xrotation Yrotation Zrotation
									JOINT newVegas:LeftHandThumb2
									{
										OFFSET 5.480453 -3.164139 3.164143
										CHANNELS 3 Xrotation Yrotation Zrotation
										JOINT newVegas:LeftHandThumb3
										{
											OFFSET 5.159721 -2.978973 2.978967
											CHANNELS 3 Xrotation Yrotation Zrotation
											End Site
											{
												OFFSET 2.494507 5.926697 1.738678
											}
										}
									}
								}
								JOINT newVegas:LeftHandIndex1
								{
									OFFSET 18.578728 -0.527832 5.208049
									CHANNELS 3 Xrotation Yrotation Zrotation
									JOINT newVegas:LeftHandIndex2
									{
										OFFSET 3.192009 0.000000 0.000000
										CHANNELS 3 Xrotation Yrotation Zrotation
										JOINT newVegas:LeftHandIndex3
										{
											OFFSET 3.835129 0.000000 0.000000
											CHANNELS 3 Xrotation Yrotation Zrotation
											End Site
											{
												OFFSET -0.034599 3.816971 0.371180
											}
										}
									}
								}
								JOINT newVegas:LeftHandMiddle1
								{
									OFFSET 18.476105 0.000000 0.000000
									CHANNELS 3 Xrotation Yrotation Zrotation
									JOINT newVegas:LeftHandMiddle2
									{
										OFFSET 3.324875 0.000000 0.000000
										CHANNELS 3 Xrotation Yrotation Zrotation
										JOINT newVegas:LeftHandMiddle3
										{
											OFFSET 4.596550 0.000000 0.000000
											CHANNELS 3 Xrotation Yrotation Zrotation
											End Site
											{
												OFFSET 0.057701 4.578827 0.399218
											}
										}
									}
								}
								JOINT newVegas:LeftHandRing1
								{
									OFFSET 17.732719 0.121887 -4.201567
									CHANNELS 3 Xrotation Yrotation Zrotation
									JOINT newVegas:LeftHandRing2
									{
										OFFSET 2.733170 0.000000 0.000000
										CHANNELS 3 Xrotation Yrotation Zrotation
										JOINT newVegas:LeftHandRing3
										{
											OFFSET 3.178268 0.000000 0.000000
											CHANNELS 3 Xrotation Yrotation Zrotation
											End Site
											{
												OFFSET 0.119102 3.170624 0.185394
											}
										}
									}
								}
								JOINT newVegas:LeftHandPinky1
								{
									OFFSET 15.989624 -0.606689 -7.535461
									CHANNELS 3 Xrotation Yrotation Zrotation
									JOINT newVegas:LeftHandPinky2
									{
										OFFSET 2.538986 0.000000 0.000000
										CHANNELS 3 Xrotation Yrotation Zrotation
										JOINT newVegas:LeftHandPinky3
										{
											OFFSET 2.593102 0.000000 0.000000
											CHANNELS 3 Xrotation Yrotation Zrotation
											End Site
											{
												OFFSET -0.150902 2.584198 0.152708
											}
										}
									}
								}
							}
							JOINT newVegas:Left_Sleeve
							{
								OFFSET 0.267448 -0.649796 0.577675
								CHANNELS 3 Xrotation Yrotation Zrotation
								End Site
								{
									OFFSET 0.000000 15.991241 0.000000
								}
							}
							JOINT newVegas:Left_CapeC
							{
								OFFSET 15.715958 -8.608795 -6.935905
								CHANNELS 3 Xrotation Yrotation Zrotation
								JOINT newVegas:Left_CapeC1
								{
									OFFSET 0.000000 -8.688499 0.000000
									CHANNELS 3 Xrotation Yrotation Zrotation
									End Site
									{
										OFFSET 0.000000 8.688499 0.000000
									}
								}
							}
						}
						JOINT newVegas:Left_CapeB
						{
							OFFSET 26.118385 -8.608795 -7.079235
							CHANNELS 3 Xrotation Yrotation Zrotation
							JOINT newVegas:Left_CapeB1
							{
								OFFSET 0.000000 -8.688499 0.000000
								CHANNELS 3 Xrotation Yrotation Zrotation
								End Site
								{
									OFFSET 0.000000 8.688499 0.000000
								}
							}
						}
						JOINT newVegas:Left_CapeA
						{
							OFFSET 5.115639 -8.608795 -10.395809
							CHANNELS 3 Xrotation Yrotation Zrotation
							JOINT newVegas:Left_CapeA1
							{
								OFFSET 0.000000 -8.688499 0.000000
								CHANNELS 3 Xrotation Yrotation Zrotation
								End Site
								{
									OFFSET 0.000000 8.688499 0.000000
								}
							}
						}
					}
				}
				JOINT newVegas:RightShoulder
				{
					OFFSET -15.263000 10.923401 -0.547700
					CHANNELS 3 Xrotation Yrotation Zrotation
					JOINT newVegas:RightArm
					{
						OFFSET -25.438599 -2.830597 -13.032500
						CHANNELS 3 Xrotation Yrotation Zrotation
						JOINT newVegas:RightForeArm
						{
							OFFSET -29.960503 0.000000 0.000000
							CHANNELS 3 Xrotation Yrotation Zrotation
							JOINT newVegas:RightHand
							{
								OFFSET -27.849251 0.000000 0.000000
								CHANNELS 3 Xrotation Yrotation Zrotation
								JOINT newVegas:RightHandThumb1
								{
									OFFSET -4.487587 -3.305161 6.305391
									CHANNELS 3 Xrotation Yrotation Zrotation
									JOINT newVegas:RightHandThumb2
									{
										OFFSET -5.480453 -3.164139 3.164143
										CHANNELS 3 Xrotation Yrotation Zrotation
										JOINT newVegas:RightHandThumb3
										{
											OFFSET -5.159721 -2.978973 2.978967
											CHANNELS 3 Xrotation Yrotation Zrotation
											End Site
											{
												OFFSET -2.494507 5.926697 1.738678
											}
										}
									}
								}
								JOINT newVegas:RightHandIndex1
								{
									OFFSET -18.578728 -0.527832 5.208049
									CHANNELS 3 Xrotation Yrotation Zrotation
									JOINT newVegas:RightHandIndex2
									{
										OFFSET -3.192009 0.000000 0.000000
										CHANNELS 3 Xrotation Yrotation Zrotation
										JOINT newVegas:RightHandIndex3
										{
											OFFSET -3.835129 0.000000 0.000000
											CHANNELS 3 Xrotation Yrotation Zrotation
											End Site
											{
												OFFSET 0.034599 3.816971 0.371180
											}
										}
									}
								}
								JOINT newVegas:RightHandMiddle1
								{
									OFFSET -18.476105 0.000000 0.000000
									CHANNELS 3 Xrotation Yrotation Zrotation
									JOINT newVegas:RightHandMiddle2
									{
										OFFSET -3.324875 0.000000 0.000000
										CHANNELS 3 Xrotation Yrotation Zrotation
										JOINT newVegas:RightHandMiddle3
										{
											OFFSET -4.596550 0.000000 0.000000
											CHANNELS 3 Xrotation Yrotation Zrotation
											End Site
											{
												OFFSET -0.057701 4.578827 0.399218
											}
										}
									}
								}
								JOINT newVegas:RightHandRing1
								{
									OFFSET -17.732719 0.121887 -4.201567
									CHANNELS 3 Xrotation Yrotation Zrotation
									JOINT newVegas:RightHandRing2
									{
										OFFSET -2.733170 0.000000 0.000000
										CHANNELS 3 Xrotation Yrotation Zrotation
										JOINT newVegas:RightHandRing3
										{
											OFFSET -3.178268 0.000000 0.000000
											CHANNELS 3 Xrotation Yrotation Zrotation
											End Site
											{
												OFFSET -0.119102 3.170624 0.185394
											}
										}
									}
								}
								JOINT newVegas:RightHandPinky1
								{
									OFFSET -15.989624 -0.606689 -7.535461
									CHANNELS 3 Xrotation Yrotation Zrotation
									JOINT newVegas:RightHandPinky2
									{
										OFFSET -2.538986 0.000000 0.000000
										CHANNELS 3 Xrotation Yrotation Zrotation
										JOINT newVegas:RightHandPinky3
										{
											OFFSET -2.593102 0.000000 0.000000
											CHANNELS 3 Xrotation Yrotation Zrotation
											End Site
											{
												OFFSET 0.150902 2.584198 0.152708
											}
										}
									}
								}
							}
							JOINT newVegas:Right_CapeC
							{
								OFFSET -15.715958 -8.608795 -6.935905
								CHANNELS 3 Xrotation Yrotation Zrotation
								JOINT newVegas:Right_CapeC1
								{
									OFFSET 0.000000 -8.688499 0.000000
									CHANNELS 3 Xrotation Yrotation Zrotation
									End Site
									{
										OFFSET 0.000000 8.688499 0.000000
									}
								}
							}
							JOINT newVegas:Right_Sleeve
							{
								OFFSET -0.267448 -0.649994 0.577675
								CHANNELS 3 Xrotation Yrotation Zrotation
								End Site
								{
									OFFSET 0.000000 15.991302 0.000000
								}
							}
						}
						JOINT newVegas:Right_CapeA
						{
							OFFSET -5.115540 -8.608795 -10.395824
							CHANNELS 3 Xrotation Yrotation Zrotation
							JOINT newVegas:Right_CapeA1
							{
								OFFSET 0.000000 -8.688499 0.000000
								CHANNELS 3 Xrotation Yrotation Zrotation
								End Site
								{
									OFFSET 0.000000 8.688499 0.000000
								}
							}
						}
						JOINT newVegas:Right_CapeB
						{
							OFFSET -26.118187 -8.608795 -7.079266
							CHANNELS 3 Xrotation Yrotation Zrotation
							JOINT newVegas:Right_CapeB1
							{
								OFFSET 0.000000 -8.688499 0.000000
								CHANNELS 3 Xrotation Yrotation Zrotation
								End Site
								{
									OFFSET 0.000000 8.688499 0.000000
								}
							}
						}
					}
				}
				JOINT newVegas:Left_Collar
				{
					OFFSET 18.625099 8.655502 8.828100
					CHANNELS 3 Xrotation Yrotation Zrotation
					JOINT newVegas:Left_Collar1
					{
						OFFSET 14.783401 10.540405 -1.259500
						CHANNELS 3 Xrotation Yrotation Zrotation
						End Site
						{
							OFFSET 0.000000 18.199875 0.000000
						}
					}
				}
				JOINT newVegas:Collar_Back
				{
					OFFSET 0.000000 15.630707 -20.132601
					CHANNELS 3 Xrotation Yrotation Zrotation
					End Site
					{
						OFFSET 0.000000 22.523010 0.000000
					}
				}
				JOINT newVegas:Left_Peck
				{
					OFFSET 17.239599 -5.132599 25.482599
					CHANNELS 3 Xrotation Yrotation Zrotation
					End Site
					{
						OFFSET 0.000000 22.523010 0.000000
					}
				}
				JOINT newVegas:Right_Peck
				{
					OFFSET -17.239599 -5.132202 25.482599
					CHANNELS 3 Xrotation Yrotation Zrotation
					End Site
					{
						OFFSET 0.000000 22.523010 0.000000
					}
				}
				JOINT newVegas:Right_Collar
				{
					OFFSET -18.625099 8.655792 8.828100
					CHANNELS 3 Xrotation Yrotation Zrotation
					JOINT newVegas:Right_Collar1
					{
						OFFSET -14.783401 10.539993 -1.259500
						CHANNELS 3 Xrotation Yrotation Zrotation
						End Site
						{
							OFFSET 0.000000 18.199631 0.000000
						}
					}
				}
			}
		}
		JOINT newVegas:Belly
		{
			OFFSET 0.000000 -6.540398 9.014299
			CHANNELS 3 Xrotation Yrotation Zrotation
			End Site
			{
				OFFSET 0.000000 11.566666 0.000000
			}
		}
	}
	JOINT newVegas:ElvisFacialAnim_Joint
	{
		OFFSET 1.000000 -95.330101 -8.825800
		CHANNELS 3 Xrotation Yrotation Zrotation
		End Site
		{
			OFFSET 0.000000 35.315800 0.000000
		}
	}
}
MOTION
Frames: 4
Frame Time: 0.033333
-12.412720 94.007515 3.358220 -4.991668 -118.671094 -4.833044 -0.000000 0.000003 -0.000000 -9.083960 19.760897 4.848029 21.519425 12.771903 -1.278952 -14.766635 -3.288618 -4.042131 -0.000000 0.000000 -0.000000 -0.000001 0.000000 -0.000000 -32.066430 -1.578048 -4.874798 42.875129 14.728698 -5.332942 1.146977 -0.781341 3.740563 -0.000001 -0.000002 0.000000 0.000001 -0.000000 0.000000 8.812852 -0.913004 -0.195921 1.253401 -2.064071 2.432994 1.269348 -1.764652 2.566890 -0.588544 4.038743 -1.411555 -0.588540 4.038722 -1.411551 0.000001 -0.000002 -0.000000 -0.588538 4.038696 -1.411545 -0.588471 4.038747 -1.411562 -0.000001 0.000001 -0.000000 0.000001 -0.000002 0.000000 0.067738 -8.120076 -0.211615 -56.410368 8.097673 -38.735301 24.213430 -70.143154 24.462171 -50.411792 13.647886 4.650549 17.551568 -5.699205 -12.932290 10.850495 26.127739 8.644829 -0.000003 -0.000002 -0.000005 13.980895 1.201584 -55.004381 0.370796 1.161734 -65.441832 -0.000001 -0.000001 -0.000001 7.504734 1.174442 -63.778524 1.807807 1.475629 -64.567923 -0.000001 -0.000000 -0.000001 8.574315 2.179113 -75.149013 -0.207672 1.009283 -57.855056 -0.000001 -0.000001 -0.000000 10.030109 13.637085 -84.750278 0.876993 0.062349 -64.595531 0.000002 -0.000002 0.000000 0.000000 0.000000 0.000001 0.000000 0.000000 0.000001 -0.000000 0.000000 0.000002 0.000002 0.000001 0.000000 0.000002 -0.000000 -0.000002 0.000002 0.000001 0.000000 0.000001 -0.000001 -0.000001 4.953932 7.154685 4.926352 2.239601 0.706413 63.396757 2.141724 21.351945 -0.778888 -0.272760 5.300712 -1.653874 15.776916 -2.703118 -17.207654 -2.197356 -31.117823 7.359833 0.000001 0.000000 0.000001 5.645679 -4.234084 21.672513 -1.880894 -2.683634 24.589745 0.000001 -0.000000 -0.000001 0.435431 -9.450960 36.019132 1.186955 -4.981195 37.244721 0.000000 0.000000 -0.000001 -6.967281 -21.156268 29.252201 5.671575 -0.840006 41.684563 0.000001 -0.000001 0.000002 -12.989082 -25.174626 27.161203 10.981623 0.153318 45.603974 0.000004 0.000001 0.000002 -0.000001 -0.000000 -0.000001 -0.000001 -0.000000 -0.000001 -0.000001 -0.000000 -0.000000 -0.000000 0.000001 0.000000 -0.000000 0.000002 0.000001 -0.000000 0.000001 0.000000 -0.000000 0.000002 0.000001 0.000001 0.000001 -0.000001 0.000001 0.000001 -0.000001 0.000001 0.000001 -0.000001 0.000001 0.000001 -0.000001 0.000001 0.000001 -0.000001 0.000001 0.000001 -0.000001 0.000001 0.000001 -0.000001 -0.000000 -0.000001 -0.000000 -0.000000 0.000003 -0.000000 
-12.042772 93.979538 3.250277 -5.035746 -119.510142 -4.900487 0.000000 -0.000002 0.000000 -9.419919 19.697369 5.097203 21.866050 13.271303 -1.280854 -14.806392 -2.912894 -4.319862 0.000000 -0.000000 0.000000 -0.000001 -0.000001 -0.000000 -30.043704 -2.512158 -7.553012 42.376959 13.073650 -4.642762 0.550754 -1.220529 5.217936 0.000002 0.000001 0.000000 0.000000 0.000000 -0.000001 8.645549 -0.720474 -0.016704 1.333551 -1.796317 2.412799 1.344268 -1.506462 2.529422 -0.559218 4.039705 -1.422798 -0.559214 4.039712 -1.422798 0.000000 -0.000003 0.000000 -0.559217 4.039680 -1.422794 -0.559217 4.039727 -1.422803 -0.000000 -0.000000 0.000000 0.000000 -0.000003 0.000000 0.105324 -7.671799 -0.200153 -56.318338 8.142636 -38.915556 23.083101 -69.920804 23.404113 -50.406711 13.739208 4.535142 17.551568 -5.699207 -12.932295 10.850496 26.127743 8.644823 -0.000001 -0.000002 -0.000005 13.980899 1.201585 -55.004381 0.370794 1.161736 -65.441825 -0.000000 -0.000001 -0.000002 7.504735 1.174442 -63.778524 1.807808 1.475629 -64.567923 -0.000001 -0.000001 -0.000002 8.574316 2.179111 -75.149013 -0.207673 1.009280 -57.855063 0.000001 0.000001 -0.000001 10.030106 13.637088 -84.750278 0.876994 0.062356 -64.595537 0.000001 0.000000 -0.000001 -0.000000 -0.000003 0.000001 -0.000000 -0.000003 0.000001 -0.000001 -0.000003 0.000001 0.000000 0.000000 -0.000000 0.000000 -0.000001 -0.000001 0.000000 0.000000 -0.000000 0.000000 -0.000001 -0.000001 4.922087 7.294158 4.910929 2.298854 -0.084411 63.617727 5.519154 21.004206 -2.057325 -0.286060 5.537920 1.223031 15.776917 -2.703105 -17.207656 -2.198303 -31.113790 7.361143 0.000000 0.000003 0.000001 5.674013 -4.095333 21.859641 -1.874578 -2.688615 24.742500 -0.000002 -0.000002 0.000008 0.402559 -9.346081 36.465366 1.197211 -4.980314 37.362129 0.000001 -0.000000 0.000003 -7.113852 -21.354199 29.405716 5.680703 -0.777826 42.039278 -0.000000 -0.000001 -0.000001 -13.195866 -25.333684 27.222356 10.981855 0.142230 45.735613 0.000000 -0.000000 -0.000001 0.000001 0.000000 0.000000 0.000001 0.000000 -0.000001 0.000001 0.000000 0.000000 -0.000001 0.000001 0.000001 -0.000001 0.000001 0.000001 -0.000001 0.000001 0.000001 -0.000001 0.000001 0.000001 0.000001 0.000000 -0.000000 0.000001 0.000000 -0.000000 0.000001 0.000000 -0.000000 0.000001 0.000000 -0.000000 0.000001 0.000000 -0.000000 0.000001 0.000000 -0.000000 0.000001 0.000000 -0.000000 -0.000000 0.000000 0.000000 0.000000 -0.000002 0.000000 
-11.628659 93.918312 3.052859 -5.033705 -120.205292 -4.941081 0.000000 0.000002 -0.000000 -9.944202 19.592504 5.553605 22.511378 13.662701 -1.313528 -14.914562 -2.577115 -4.698992 0.000000 0.000000 -0.000000 -0.000003 -0.000000 -0.000000 -27.643669 -3.289848 -10.238438 40.865479 12.238293 -3.679794 0.284514 -1.558758 7.024091 -0.000001 0.000001 -0.000000 -0.000001 -0.000001 0.000000 8.471369 -0.550408 0.060796 1.382223 -1.552391 2.404514 1.389322 -1.269946 2.505913 -0.525106 4.018687 -1.406604 -0.525107 4.018696 -1.406605 0.000000 0.000002 -0.000000 -0.525106 4.018684 -1.406604 -0.525108 4.018688 -1.406604 -0.000001 0.000002 -0.000000 0.000000 0.000002 -0.000000 0.127660 -7.440210 -0.188234 -56.089510 7.974251 -38.955629 22.287848 -69.508171 22.687040 -50.387907 13.736420 4.434132 17.551564 -5.699205 -12.932288 10.850499 26.127745 8.644830 0.000003 0.000001 0.000001 13.980896 1.201587 -55.004384 0.370796 1.161734 -65.441832 -0.000000 0.000001 -0.000001 7.504734 1.174444 -63.778524 1.807810 1.475630 -64.567930 -0.000001 0.000001 0.000002 8.574317 2.179113 -75.149013 -0.207676 1.009282 -57.855056 0.000000 0.000001 -0.000003 10.030109 13.637087 -84.750278 0.876992 0.062351 -64.595537 0.000001 -0.000002 0.000002 0.000001 0.000002 -0.000000 0.000001 0.000002 -0.000000 -0.000000 0.000002 0.000000 -0.000001 -0.000002 0.000000 -0.000001 -0.000003 -0.000002 -0.000001 -0.000002 0.000000 -0.000001 -0.000003 -0.000001 4.899633 7.407317 4.987222 2.062638 -0.832548 63.508199 8.699512 20.809971 -3.345229 -0.324816 6.025317 4.137682 15.776912 -2.703097 -17.207661 -2.198310 -31.113820 7.361128 -0.000000 -0.000000 -0.000000 5.641347 -4.247876 21.679335 -1.880138 -2.684290 24.606141 -0.000000 0.000000 -0.000002 0.417143 -9.427550 36.165978 1.183664 -4.982704 37.206492 0.000000 0.000000 0.000001 -6.841564 -21.311987 29.509716 5.675732 -0.772935 42.301062 -0.000002 0.000002 0.000001 -12.777843 -25.195748 27.451849 10.980709 0.151821 45.811175 -0.000000 0.000003 -0.000002 -0.000000 -0.000000 0.000000 -0.000000 -0.000000 0.000000 -0.000000 -0.000000 0.000001 -0.000001 -0.000002 -0.000000 -0.000001 -0.000002 -0.000000 -0.000001 -0.000002 -0.000000 -0.000001 -0.000002 -0.000000 -0.000000 -0.000001 -0.000000 -0.000000 -0.000001 -0.000000 -0.000000 -0.000001 -0.000000 -0.000000 -0.000001 -0.000000 -0.000000 -0.000001 -0.000000 -0.000000 -0.000001 -0.000000 -0.000000 -0.000001 -0.000000 -0.000000 -0.000001 -0.000000 0.000000 0.000002 -0.000000 
-11.167677 93.840607 2.779443 -5.038259 -120.799614 -4.987671 0.000000 -0.000000 -0.000000 -10.579119 19.454727 6.140870 23.276474 13.994317 -1.358274 -15.010085 -2.285508 -5.154603 -0.000000 -0.000000 -0.000000 0.000001 0.000000 0.000000 -24.969087 -3.726647 -12.809227 37.891202 12.728250 -2.263180 -0.575583 -1.849507 9.191208 0.000001 -0.000000 -0.000000 0.000001 -0.000001 0.000000 8.294754 -0.390684 -0.002034 1.408481 -1.306707 2.387975 1.412417 -1.030050 2.476221 -0.517450 3.985254 -1.381372 -0.517448 3.985272 -1.381370 -0.000001 -0.000001 -0.000000 -0.517445 3.985288 -1.381379 -0.517376 3.985258 -1.381374 -0.000000 0.000001 -0.000000 -0.000001 -0.000001 0.000000 0.126642 -7.462211 -0.173995 -55.784446 7.793310 -38.776142 21.219627 -69.367087 21.677895 -50.388580 13.683855 4.485681 17.551568 -5.699213 -12.932289 10.850492 26.127739 8.644830 0.000003 -0.000000 -0.000005 13.980896 1.201581 -55.004381 0.370794 1.161735 -65.441825 -0.000000 0.000000 0.000004 7.504734 1.174440 -63.778524 1.807808 1.475631 -64.567930 -0.000002 0.000001 -0.000001 8.574315 2.179109 -75.149013 -0.207673 1.009283 -57.855056 0.000000 0.000003 0.000001 10.030109 13.637085 -84.750278 0.876994 0.062350 -64.595531 0.000001 0.000000 -0.000000 -0.000000 0.000001 0.000000 -0.000000 0.000001 0.000000 -0.000001 0.000001 0.000001 -0.000001 -0.000001 -0.000000 -0.000001 -0.000002 -0.000003 -0.000001 -0.000001 -0.000000 -0.000001 -0.000002 -0.000001 4.881872 7.527772 5.126572 1.657185 -1.237893 63.325006 10.937397 20.402011 -4.219194 -0.390911 6.732600 6.185780 15.776914 -2.703119 -17.207656 -2.198325 -31.113803 7.361148 -0.000000 -0.000003 0.000001 5.561485 -4.592104 21.261006 -1.894758 -2.673553 24.293521 0.000001 -0.000000 0.000000 0.444200 -9.610612 35.472338 1.152342 -4.987609 36.847108 0.000001 0.000001 0.000000 -6.227054 -21.204225 29.732309 5.663764 -0.765043 42.885931 0.000001 -0.000001 -0.000000 -11.833793 -24.866656 27.964261 10.980996 0.171980 45.973778 0.000000 -0.000000 -0.000000 0.000000 -0.000001 0.000001 0.000000 -0.000001 0.000001 -0.000000 -0.000001 0.000002 -0.000001 -0.000001 0.000000 -0.000000 0.000000 0.000001 -0.000001 -0.000001 0.000000 -0.000000 -0.000000 0.000001 -0.000000 0.000001 -0.000000 -0.000000 0.000001 -0.000000 -0.000000 0.000001 -0.000000 -0.000000 0.000001 -0.000000 -0.000000 0.000001 -0.000000 -0.000000 0.000001 -0.000000 -0.000000 0.000001 -0.000000 -0.000000 0.000001 0.000000 0.000000 -0.000000 -0.000000 
